<svg width="291" height="100" viewBox="0 0 291 100" fill="none" xmlns="http://www.w3.org/2000/svg">
<path d="M173.036 49.3029H178.064C178.248 49.2899 178.432 49.3142 178.606 49.3743C178.779 49.4343 178.939 49.5289 179.075 49.6523C179.211 49.7758 179.321 49.9255 179.397 50.0924C179.474 50.2593 179.515 50.4399 179.52 50.6233V50.6233C179.652 51.8117 180.843 52.3398 181.901 51.6796C185.077 49.6991 188.779 48.3787 192.88 48.3787C197.379 48.3787 200.022 49.699 201.742 51.9437C202.271 52.6039 203.198 52.868 203.859 52.3398C207.035 50.0952 211.137 48.5107 216.558 48.5107C225.159 48.5107 229.128 52.868 229.128 61.8433V84.8115C229.125 85.1956 228.97 85.563 228.698 85.8347C228.426 86.1063 228.058 86.2604 227.673 86.2639H222.248C221.863 86.2604 221.495 86.1063 221.223 85.8347C220.95 85.563 220.796 85.1956 220.792 84.8115V62.7676C220.792 57.0899 218.543 54.9773 213.118 54.9773C209.946 54.9773 206.77 56.0336 204.518 58.1462C204.323 58.2985 204.18 58.5071 204.109 58.7435C204.038 58.98 204.042 59.2326 204.121 59.4666C204.286 60.5151 204.374 61.5742 204.385 62.6355V84.9435C204.382 85.3276 204.227 85.6951 203.955 85.9667C203.683 86.2384 203.315 86.3925 202.93 86.3959H198.037C197.653 86.3916 197.286 86.2371 197.014 85.9656C196.743 85.694 196.589 85.3271 196.585 84.9435V62.7676C196.585 57.354 195.13 54.9773 189.837 54.9773C186.397 54.9773 183.221 56.6938 180.711 58.9385C180.547 59.0913 180.416 59.2752 180.326 59.4792C180.235 59.6833 180.186 59.9035 180.181 60.1268V84.9435C180.178 85.3276 180.023 85.6951 179.751 85.9667C179.479 86.2384 179.111 86.3925 178.726 86.3959H173.301C172.916 86.3925 172.548 86.2382 172.277 85.9665C172.005 85.6948 171.851 85.3273 171.849 84.9435V50.7554C171.452 49.9631 172.113 49.3029 173.036 49.3029Z" fill="white"/>
<path d="M236.683 55.9015H234.305C233.92 55.898 233.552 55.7439 233.279 55.4723C233.007 55.2006 232.853 54.8332 232.849 54.4491V50.7553C232.853 50.3712 233.007 50.0037 233.279 49.7321C233.552 49.4604 233.92 49.3063 234.305 49.3029H236.683C237.068 49.2994 237.436 49.1453 237.709 48.8737C237.981 48.602 238.135 48.2346 238.139 47.8505V44.8136C238.139 37.4227 242.24 32.4053 250.441 32.4053C252.635 32.4053 254.818 32.7165 256.924 33.3295C257.23 33.4314 257.497 33.6261 257.687 33.8865C257.877 34.1469 257.98 34.46 257.983 34.782V37.8221C257.981 38.0479 257.928 38.2703 257.828 38.4729C257.728 38.6755 257.584 38.8531 257.406 38.9926C257.228 39.1321 257.021 39.2298 256.801 39.2787C256.58 39.3275 256.351 39.3261 256.13 39.2746C255.137 39.0132 254.114 38.8801 253.087 38.8785C248.191 38.8785 246.607 40.4629 246.607 44.6848V47.5897C246.61 47.9738 246.765 48.3412 247.037 48.6129C247.309 48.8845 247.677 49.0386 248.062 49.0421H254.678C254.883 49.0354 255.086 49.0729 255.275 49.152C255.463 49.2312 255.633 49.3501 255.771 49.5005C255.909 49.651 256.013 49.8296 256.076 50.0239C256.138 50.2183 256.158 50.4239 256.134 50.6266L255.869 54.3203C255.866 54.7045 255.711 55.0719 255.439 55.3435C255.167 55.6152 254.799 55.7693 254.414 55.7727H248.062C247.677 55.7762 247.309 55.9303 247.037 56.202C246.765 56.4736 246.61 56.841 246.607 57.2252V84.6957C246.603 85.0799 246.449 85.4473 246.177 85.7189C245.905 85.9906 245.536 86.1447 245.151 86.1482H239.726C239.342 86.1447 238.973 85.9906 238.701 85.7189C238.429 85.4473 238.274 85.0799 238.271 84.6957V57.4859C238.279 57.2756 238.244 57.0659 238.167 56.8698C238.09 56.6738 237.974 56.4958 237.825 56.347C237.675 56.1981 237.497 56.0817 237.301 56.005C237.104 55.9284 236.894 55.8931 236.683 55.9015V55.9015Z" fill="white"/>
<path d="M252.955 97.88V94.579C252.955 93.6548 253.749 92.8625 254.676 93.1266C255.674 93.3453 256.697 93.4341 257.719 93.3907C262.35 93.3907 263.934 91.4101 266.448 86.396C266.578 86.2001 266.647 85.9705 266.647 85.7358C266.647 85.501 266.578 85.2715 266.448 85.0756L251.103 51.2837C250.706 50.2274 251.368 49.1711 252.426 49.1711H257.983C258.275 49.1577 258.563 49.2412 258.803 49.4084C259.042 49.5756 259.219 49.8171 259.307 50.0953L269.492 73.5915C269.614 73.857 269.809 74.082 270.056 74.2397C270.302 74.3974 270.588 74.4812 270.881 74.4812C271.174 74.4812 271.46 74.3974 271.706 74.2397C271.953 74.082 272.148 73.857 272.27 73.5915L282.588 50.0953C282.706 49.8376 282.891 49.6161 283.123 49.4536C283.356 49.2911 283.628 49.1936 283.911 49.1711H289.465C289.717 49.1635 289.967 49.222 290.19 49.3409C290.413 49.4597 290.6 49.6347 290.734 49.8484C290.868 50.0621 290.943 50.307 290.953 50.5589C290.962 50.8107 290.905 51.0606 290.788 51.2837L276.501 84.1513C272.532 93.5227 268.433 99.9959 259.962 99.9959C257.904 100.037 255.853 99.7698 253.875 99.2037C253.352 99.2004 252.955 98.6722 252.955 97.88Z" fill="white"/>
<path d="M103.375 1.70947e-05C92.2406 -0.00922897 81.4289 3.73248 72.691 10.6192H71.219C66.4419 10.5977 61.7083 11.5256 57.2943 13.3488C52.8804 15.172 48.8744 17.854 45.51 21.2384C43.4896 23.2282 41.7401 25.4745 40.3067 27.9196V27.9196C38.8076 27.6964 37.2939 27.586 35.7782 27.5895C26.2935 27.5904 17.1972 31.349 10.4883 38.0395C3.77948 44.73 0.00701461 53.8048 0 63.2696C0 82.9302 15.739 98.9762 35.5533 98.9762H103.488C130.999 98.9762 152.855 76.7178 152.855 49.4881C152.967 22.1429 130.774 1.70947e-05 103.375 1.70947e-05ZM55.2551 30.8442C56.316 29.775 57.4932 28.8273 58.7648 28.0186C62.446 25.5541 66.7862 24.2542 71.219 24.2885C73.2096 24.2655 75.193 24.5312 77.1071 25.0775C80.9215 26.1324 84.3959 28.1582 87.1895 30.9565C89.2989 33.0605 90.9662 35.5636 92.0937 38.3189C93.2212 41.0742 93.7862 44.0264 93.7557 47.0025C93.742 52.9989 91.3866 58.7538 87.1895 63.0452C86.7363 63.3752 85.3768 64.6263 84.133 65.7553C79.1772 69.3741 74.4531 73.2989 69.9885 77.5067L69.876 77.6189C70.0965 75.1344 70.4361 72.3099 70.8948 69.1454C70.8948 69.1454 71.2256 65.1842 71.2256 63.4974C71.2302 57.281 69.6015 51.1721 66.5021 45.7797C63.4027 40.3874 58.9408 35.9001 53.5615 32.7654V32.7654C54.0418 32.0557 54.611 31.4101 55.2551 30.8442V30.8442ZM35.5533 85.4158C23.4364 85.4158 13.5888 75.4733 13.5888 63.2696C13.5888 51.2937 23.324 41.4634 35.2126 41.239H35.6657C38.5627 41.2141 41.4358 41.7631 44.1186 42.8543C46.8014 43.9455 49.2405 45.5572 51.2946 47.5959C53.3486 49.6346 54.9768 52.0599 56.0848 54.7311C57.1928 57.4023 57.7585 60.2664 57.7492 63.1574C57.7544 63.837 57.7157 64.5162 57.6335 65.1908V65.1908C57.614 65.8364 57.5388 66.4792 57.4085 67.1119V67.2242C57.3142 68.2496 57.1629 69.2689 56.9554 70.2776C56.8429 70.7298 56.8429 71.1787 56.7304 71.631C56.6146 72.311 56.6146 72.9877 56.5022 73.6644C56.3897 74.4566 56.3897 75.2488 56.2772 76.0378C56.2772 76.6022 56.1615 77.0545 56.1615 77.6189C56.0679 78.3312 56.0303 79.0497 56.049 79.7679C56.049 80.5568 55.9365 81.349 55.9365 82.1413V82.8014V85.3993L35.5533 85.4158ZM103.6 85.4158H81.1824C81.2949 85.4158 81.4073 85.3036 81.5132 85.1913C85.0442 82.0189 88.748 79.0435 92.6079 76.2787C92.6079 76.2787 95.7768 73.7931 96.9081 72.5486C111.059 58.4271 111.059 35.3765 96.9081 21.2516C94.9345 19.2634 92.734 17.513 90.3519 16.0361C94.5025 14.4269 98.9224 13.6215 103.375 13.6627C123.189 13.6627 139.266 29.8209 139.266 49.5937C139.266 69.2609 123.302 85.4158 103.6 85.4158Z" fill="white"/>
</svg>
