<svg width="224" height="100" viewBox="0 0 224 100" fill="none" xmlns="http://www.w3.org/2000/svg">
<circle cx="50" cy="50" r="42.5" stroke="white" stroke-width="15"/>
<path fill-rule="evenodd" clip-rule="evenodd" d="M48.3188 51.2712L25 51.2712L40.2542 38.1356L55.5085 25L51.6812 48.7288H75L59.7458 61.8644L44.4915 75L48.3188 51.2712Z" fill="white"/>
<path d="M132.744 19.404C126.192 19.404 121.944 22.572 121.944 27.612C121.944 36.468 135.012 34.308 135.012 37.584C135.012 38.484 134.22 38.88 132.996 38.88C130.44 38.88 125.976 37.116 123.384 34.956L120.288 41.22C123.636 43.776 128.532 45.252 132.924 45.252C138.612 45.252 143.544 42.768 143.544 37.152C143.544 28.008 130.476 29.988 130.476 26.82C130.476 26.064 131.088 25.776 132.024 25.776C134.22 25.776 138.144 27.324 140.7 28.728L143.724 22.392C140.88 20.592 136.74 19.404 132.744 19.404ZM158.558 38.592C157.802 38.88 157.01 39.096 156.542 39.096C155.57 39.132 154.958 38.484 154.958 37.44V31.5H159.566V26.388H154.958V20.88H146.894V26.388H144.194V31.5H146.894V38.664C146.894 42.768 149.81 45.396 154.31 45.36C156.398 45.36 158.63 44.892 159.926 44.136L158.558 38.592ZM172.129 25.02C165.361 25.02 161.005 28.98 161.005 35.136C161.005 41.292 165.361 45.288 172.129 45.288C178.897 45.288 183.253 41.292 183.253 35.136C183.253 28.98 178.897 25.02 172.129 25.02ZM172.129 31.428C173.929 31.428 175.081 32.94 175.081 35.244C175.081 37.548 173.929 39.06 172.129 39.06C170.329 39.06 169.177 37.548 169.177 35.244C169.177 32.94 170.329 31.428 172.129 31.428ZM193.889 25.308H185.789V45H193.889V35.604C193.889 33.012 196.265 31.716 199.901 32.256V24.948C197.345 24.948 195.257 26.136 193.889 28.188V25.308ZM223.789 25.308H215.725L212.521 36.54L208.633 25.308H200.317L208.489 44.388L208.201 44.856C207.805 45.54 207.193 45.864 206.257 45.864C205.285 45.864 204.493 45.504 203.629 44.712L200.245 50.04C202.369 51.624 204.457 52.344 207.049 52.344C211.261 52.344 214.033 50.472 215.689 46.368L223.789 25.308ZM138.036 81L147.684 55.764H139.152L133.968 72.324L128.748 55.764H119.82L129.396 81H138.036ZM153.54 51.588C151.128 51.588 149.436 53.28 149.436 55.692C149.436 58.104 151.128 59.796 153.54 59.796C155.952 59.796 157.644 58.104 157.644 55.692C157.644 53.28 155.952 51.588 153.54 51.588ZM157.572 81V61.308H149.472V81H157.572ZM170.603 61.02C164.267 61.02 160.091 65.016 160.091 71.244C160.091 77.328 164.087 81.288 170.819 81.288C174.635 81.288 177.659 79.992 179.747 77.688L175.535 73.548C174.311 74.7 172.907 75.312 171.539 75.312C169.955 75.312 168.803 74.52 168.263 72.972H181.079C181.511 65.7 177.479 61.02 170.603 61.02ZM168.083 69.228C168.407 67.572 169.271 66.42 170.675 66.42C172.079 66.42 173.087 67.608 172.979 69.228H168.083ZM209.469 81L216.669 61.308H208.857L205.761 73.044L202.629 61.308H195.141L192.117 73.044L188.985 61.308H180.777L187.905 81H195.825L198.741 70.632L201.549 81H209.469Z" fill="white"/>
</svg>
