<svg width="125" height="50" viewBox="0 0 125 50" fill="none" xmlns="http://www.w3.org/2000/svg">
<rect x="5.5" y="5.5" width="114" height="39" rx="19.5" stroke="#333333"/>
<rect x="83" y="8" width="34" height="34" rx="17" fill="#CCCCCC"/>
<path fill-rule="evenodd" clip-rule="evenodd" d="M98.6051 25.1872L89 34.7922L89.5821 35.3744L99.1872 25.7693L108.792 35.3744L109.374 34.7922L99.7693 25.1872L109.374 15.5821L108.792 15L99.1872 24.6051L89.5821 15L89 15.5821L98.6051 25.1872Z" fill="#DDDDDD"/>
<path d="M88.1787 28H86.6406V21.6016H88.1787V28ZM91.2769 21.6016L92.7051 26.0532L94.1289 21.6016H96.1592V28H94.6123V26.5059L94.7617 23.4473L93.2148 28H92.1953L90.644 23.4429L90.7935 26.5059V28H89.251V21.6016H91.2769ZM100.857 26.8047H98.7432L98.374 28H96.7261L99.0728 21.6016H100.523L102.887 28H101.23L100.857 26.8047ZM99.1123 25.6138H100.488L99.7979 23.3945L99.1123 25.6138ZM108.499 27.209C108.262 27.4727 107.915 27.6851 107.458 27.8462C107 28.0073 106.5 28.0879 105.955 28.0879C105.117 28.0879 104.447 27.8315 103.946 27.3188C103.445 26.8062 103.177 26.0928 103.142 25.1787L103.138 24.625C103.138 23.9951 103.249 23.4458 103.472 22.9771C103.694 22.5054 104.012 22.1436 104.425 21.8916C104.841 21.6367 105.322 21.5093 105.867 21.5093C106.664 21.5093 107.282 21.6924 107.721 22.0586C108.164 22.4219 108.421 22.9653 108.495 23.689H107.009C106.957 23.3315 106.842 23.0767 106.667 22.9243C106.491 22.772 106.242 22.6958 105.919 22.6958C105.533 22.6958 105.234 22.8599 105.023 23.188C104.812 23.5161 104.705 23.9849 104.702 24.5942V24.981C104.702 25.6196 104.811 26.1001 105.027 26.4224C105.247 26.7417 105.591 26.9014 106.06 26.9014C106.461 26.9014 106.76 26.812 106.957 26.6333V25.6401H105.884V24.5811H108.499V27.209ZM113.364 25.2886H110.938V26.8135H113.803V28H109.396V21.6016H113.812V22.7925H110.938V24.1416H113.364V25.2886Z" fill="white"/>
<path d="M10.4834 28V21.6016H12.7817C13.605 21.6016 14.2305 21.7524 14.6582 22.0542C15.0889 22.356 15.3042 22.7939 15.3042 23.3682C15.3042 23.6992 15.228 23.9819 15.0757 24.2163C14.9233 24.4507 14.6992 24.6235 14.4033 24.7349C14.7373 24.8228 14.9937 24.9868 15.1724 25.2271C15.3511 25.4673 15.4404 25.7603 15.4404 26.106C15.4404 26.7329 15.2412 27.2046 14.8428 27.521C14.4473 27.8345 13.8599 27.9941 13.0806 28H10.4834ZM12.0259 25.2798V26.8135H13.0366C13.3149 26.8135 13.5288 26.7505 13.6782 26.6245C13.8276 26.4956 13.9023 26.3154 13.9023 26.084C13.9023 25.5508 13.6372 25.2827 13.1069 25.2798H12.0259ZM12.0259 24.269H12.8301C13.167 24.2661 13.4072 24.2046 13.5508 24.0845C13.6943 23.9644 13.7661 23.7871 13.7661 23.5527C13.7661 23.2832 13.6885 23.0898 13.5332 22.9727C13.3779 22.8525 13.1274 22.7925 12.7817 22.7925H12.0259V24.269ZM21.3115 21.6016V25.7896C21.3115 26.2642 21.2104 26.6758 21.0083 27.0244C20.8062 27.3701 20.5161 27.6338 20.1382 27.8154C19.7603 27.9971 19.3135 28.0879 18.7979 28.0879C18.0186 28.0879 17.4048 27.8857 16.9565 27.4814C16.5083 27.0771 16.2798 26.5234 16.271 25.8203V21.6016H17.8223V25.8511C17.8398 26.5513 18.165 26.9014 18.7979 26.9014C19.1172 26.9014 19.3589 26.8135 19.5229 26.6377C19.687 26.4619 19.769 26.1763 19.769 25.7808V21.6016H21.3115ZM27.3013 22.7925H25.3809V28H23.8384V22.7925H21.9531V21.6016H27.3013V22.7925ZM33.0493 22.7925H31.1289V28H29.5864V22.7925H27.7012V21.6016H33.0493V22.7925ZM38.9995 24.9326C38.9995 25.5566 38.8838 26.1089 38.6523 26.5894C38.4209 27.0698 38.0913 27.4404 37.6636 27.7012C37.2388 27.959 36.7539 28.0879 36.209 28.0879C35.6641 28.0879 35.1807 27.9634 34.7588 27.7144C34.3369 27.4624 34.0073 27.1035 33.77 26.6377C33.5356 26.1719 33.4126 25.6372 33.4009 25.0337V24.6733C33.4009 24.0464 33.5151 23.4941 33.7437 23.0166C33.9751 22.5361 34.3047 22.1655 34.7324 21.9048C35.1631 21.644 35.6523 21.5137 36.2002 21.5137C36.7422 21.5137 37.2256 21.6426 37.6504 21.9004C38.0752 22.1582 38.4048 22.5259 38.6392 23.0034C38.8765 23.478 38.9966 24.0229 38.9995 24.6382V24.9326ZM37.4307 24.6646C37.4307 24.0288 37.3237 23.5469 37.1099 23.2188C36.8989 22.8877 36.5957 22.7222 36.2002 22.7222C35.4268 22.7222 35.0181 23.3022 34.9741 24.4624L34.9697 24.9326C34.9697 25.5596 35.0737 26.0415 35.2817 26.3784C35.4897 26.7153 35.7988 26.8838 36.209 26.8838C36.5986 26.8838 36.8989 26.7183 37.1099 26.3872C37.3208 26.0562 37.4277 25.5801 37.4307 24.959V24.6646ZM45.1387 28H43.605L41.3374 24.0186V28H39.7949V21.6016H41.3374L43.6006 25.583V21.6016H45.1387V28ZM53.1147 22.7925H51.1943V28H49.6519V22.7925H47.7666V21.6016H53.1147V22.7925ZM57.7378 25.2886H55.312V26.8135H58.1772V28H53.7695V21.6016H58.186V22.7925H55.312V24.1416H57.7378V25.2886ZM61.1919 23.7285L62.2378 21.6016H64L62.2114 24.7744L64.0483 28H62.2686L61.1919 25.8335L60.1152 28H58.3398L60.1724 24.7744L58.3882 21.6016H60.146L61.1919 23.7285ZM69.5767 22.7925H67.6562V28H66.1138V22.7925H64.2285V21.6016H69.5767V22.7925Z" fill="#333333"/>
</svg>
