<svg width="50" height="50" viewBox="0 0 50 50" fill="none" xmlns="http://www.w3.org/2000/svg">
<rect x="5.5" y="5.5" width="39" height="39" rx="19.5" stroke="#333333"/>
<rect x="6.5" y="6.5" width="37" height="37" rx="18.5" fill="#DDDDDD" stroke="#DDDDDD"/>
<path fill-rule="evenodd" clip-rule="evenodd" d="M24.9849 25.6698L36.285 36.9698L36.9698 36.285L25.6698 24.9849L36.9698 13.6849L36.285 13L24.9849 24.3001L13.6849 13L13 13.6849L24.3001 24.9849L13 36.285L13.6849 36.9698L24.9849 25.6698Z" fill="#CCCCCC"/>
<path d="M8.67188 27V23.4453H9.94873C10.4061 23.4453 10.7536 23.5291 10.9912 23.6968C11.2305 23.8644 11.3501 24.1077 11.3501 24.4268C11.3501 24.6107 11.3078 24.7677 11.2231 24.8979C11.1385 25.0282 11.014 25.1242 10.8496 25.186C11.0352 25.2349 11.1776 25.326 11.2769 25.4595C11.3761 25.5929 11.4258 25.7557 11.4258 25.9478C11.4258 26.2961 11.3151 26.5581 11.0938 26.7339C10.874 26.908 10.5477 26.9967 10.1147 27H8.67188ZM9.52881 25.4888V26.3408H10.0903C10.245 26.3408 10.3638 26.3058 10.4468 26.2358C10.5298 26.1642 10.5713 26.0641 10.5713 25.9355C10.5713 25.6393 10.424 25.4904 10.1294 25.4888H9.52881ZM9.52881 24.9272H9.97559C10.1628 24.9256 10.2962 24.8914 10.376 24.8247C10.4557 24.758 10.4956 24.6595 10.4956 24.5293C10.4956 24.3796 10.4525 24.2721 10.3662 24.207C10.2799 24.1403 10.1408 24.1069 9.94873 24.1069H9.52881V24.9272ZM14.6875 23.4453V25.772C14.6875 26.0356 14.6313 26.2643 14.519 26.458C14.4067 26.6501 14.2456 26.7965 14.0356 26.8975C13.8257 26.9984 13.5775 27.0488 13.291 27.0488C12.8581 27.0488 12.5171 26.9365 12.2681 26.7119C12.019 26.4873 11.8921 26.1797 11.8872 25.7891V23.4453H12.749V25.8062C12.7588 26.1951 12.9395 26.3896 13.291 26.3896C13.4684 26.3896 13.6027 26.3408 13.6938 26.2432C13.785 26.1455 13.8306 25.9868 13.8306 25.7671V23.4453H14.6875ZM18.0151 24.1069H16.9482V27H16.0913V24.1069H15.0439V23.4453H18.0151V24.1069ZM21.2085 24.1069H20.1416V27H19.2847V24.1069H18.2373V23.4453H21.2085V24.1069ZM24.5142 25.2959C24.5142 25.6426 24.4499 25.9494 24.3213 26.2163C24.1927 26.4832 24.0096 26.6891 23.772 26.834C23.536 26.9772 23.2666 27.0488 22.9639 27.0488C22.6611 27.0488 22.3926 26.9797 22.1582 26.8413C21.9238 26.7013 21.7407 26.502 21.6089 26.2432C21.4787 25.9844 21.4103 25.6873 21.4038 25.3521V25.1519C21.4038 24.8035 21.4673 24.4967 21.5942 24.2314C21.7228 23.9645 21.9059 23.7586 22.1436 23.6138C22.3828 23.4689 22.6546 23.3965 22.959 23.3965C23.2601 23.3965 23.5286 23.4681 23.7646 23.6113C24.0007 23.7546 24.1838 23.9588 24.314 24.2241C24.4458 24.4878 24.5125 24.7905 24.5142 25.1323V25.2959ZM23.6426 25.147C23.6426 24.7938 23.5832 24.526 23.4644 24.3438C23.3472 24.1598 23.1787 24.0679 22.959 24.0679C22.5293 24.0679 22.3022 24.3901 22.2778 25.0347L22.2754 25.2959C22.2754 25.6442 22.3332 25.9119 22.4487 26.0991C22.5643 26.2863 22.736 26.3799 22.9639 26.3799C23.1803 26.3799 23.3472 26.2879 23.4644 26.104C23.5815 25.9201 23.641 25.6556 23.6426 25.3105V25.147ZM27.9248 27H27.0728L25.813 24.7881V27H24.9561V23.4453H25.813L27.0703 25.6572V23.4453H27.9248V27ZM32.356 24.1069H31.2891V27H30.4321V24.1069H29.3848V23.4453H32.356V24.1069ZM34.9243 25.4937H33.5767V26.3408H35.1685V27H32.7197V23.4453H35.1733V24.1069H33.5767V24.8564H34.9243V25.4937ZM36.8433 24.627L37.4243 23.4453H38.4033L37.4097 25.208L38.4302 27H37.4414L36.8433 25.7964L36.2451 27H35.2588L36.2769 25.208L35.2856 23.4453H36.2622L36.8433 24.627ZM41.5015 24.1069H40.4346V27H39.5776V24.1069H38.5303V23.4453H41.5015V24.1069Z" fill="#333333"/>
</svg>
