<svg width="125" height="50" viewBox="0 0 125 50" fill="none" xmlns="http://www.w3.org/2000/svg">
<rect x="5.5" y="5.5" width="114" height="39" rx="2.5" stroke="#333333"/>
<path d="M32.6094 28V21.6016H34.9077C35.731 21.6016 36.3564 21.7524 36.7842 22.0542C37.2148 22.356 37.4302 22.7939 37.4302 23.3682C37.4302 23.6992 37.354 23.9819 37.2017 24.2163C37.0493 24.4507 36.8252 24.6235 36.5293 24.7349C36.8633 24.8228 37.1196 24.9868 37.2983 25.2271C37.4771 25.4673 37.5664 25.7603 37.5664 26.106C37.5664 26.7329 37.3672 27.2046 36.9688 27.521C36.5732 27.8345 35.9858 27.9941 35.2065 28H32.6094ZM34.1519 25.2798V26.8135H35.1626C35.4409 26.8135 35.6548 26.7505 35.8042 26.6245C35.9536 26.4956 36.0283 26.3154 36.0283 26.084C36.0283 25.5508 35.7632 25.2827 35.2329 25.2798H34.1519ZM34.1519 24.269H34.9561C35.293 24.2661 35.5332 24.2046 35.6768 24.0845C35.8203 23.9644 35.8921 23.7871 35.8921 23.5527C35.8921 23.2832 35.8145 23.0898 35.6592 22.9727C35.5039 22.8525 35.2534 22.7925 34.9077 22.7925H34.1519V24.269ZM43.4375 21.6016V25.7896C43.4375 26.2642 43.3364 26.6758 43.1343 27.0244C42.9321 27.3701 42.6421 27.6338 42.2642 27.8154C41.8862 27.9971 41.4395 28.0879 40.9238 28.0879C40.1445 28.0879 39.5308 27.8857 39.0825 27.4814C38.6343 27.0771 38.4058 26.5234 38.397 25.8203V21.6016H39.9482V25.8511C39.9658 26.5513 40.291 26.9014 40.9238 26.9014C41.2432 26.9014 41.4849 26.8135 41.6489 26.6377C41.813 26.4619 41.895 26.1763 41.895 25.7808V21.6016H43.4375ZM49.4272 22.7925H47.5068V28H45.9644V22.7925H44.0791V21.6016H49.4272V22.7925ZM55.1753 22.7925H53.2549V28H51.7124V22.7925H49.8271V21.6016H55.1753V22.7925ZM61.1255 24.9326C61.1255 25.5566 61.0098 26.1089 60.7783 26.5894C60.5469 27.0698 60.2173 27.4404 59.7896 27.7012C59.3647 27.959 58.8799 28.0879 58.335 28.0879C57.79 28.0879 57.3066 27.9634 56.8848 27.7144C56.4629 27.4624 56.1333 27.1035 55.896 26.6377C55.6616 26.1719 55.5386 25.6372 55.5269 25.0337V24.6733C55.5269 24.0464 55.6411 23.4941 55.8696 23.0166C56.1011 22.5361 56.4307 22.1655 56.8584 21.9048C57.2891 21.644 57.7783 21.5137 58.3262 21.5137C58.8682 21.5137 59.3516 21.6426 59.7764 21.9004C60.2012 22.1582 60.5308 22.5259 60.7651 23.0034C61.0024 23.478 61.1226 24.0229 61.1255 24.6382V24.9326ZM59.5566 24.6646C59.5566 24.0288 59.4497 23.5469 59.2358 23.2188C59.0249 22.8877 58.7217 22.7222 58.3262 22.7222C57.5527 22.7222 57.144 23.3022 57.1001 24.4624L57.0957 24.9326C57.0957 25.5596 57.1997 26.0415 57.4077 26.3784C57.6157 26.7153 57.9248 26.8838 58.335 26.8838C58.7246 26.8838 59.0249 26.7183 59.2358 26.3872C59.4468 26.0562 59.5537 25.5801 59.5566 24.959V24.6646ZM67.2646 28H65.731L63.4634 24.0186V28H61.9209V21.6016H63.4634L65.7266 25.583V21.6016H67.2646V28ZM75.2407 22.7925H73.3203V28H71.7778V22.7925H69.8926V21.6016H75.2407V22.7925ZM79.8638 25.2886H77.438V26.8135H80.3032V28H75.8955V21.6016H80.312V22.7925H77.438V24.1416H79.8638V25.2886ZM83.3179 23.7285L84.3638 21.6016H86.126L84.3374 24.7744L86.1743 28H84.3945L83.3179 25.8335L82.2412 28H80.4658L82.2983 24.7744L80.5142 21.6016H82.272L83.3179 23.7285ZM91.7026 22.7925H89.7822V28H88.2397V22.7925H86.3545V21.6016H91.7026V22.7925Z" fill="#333333"/>
</svg>
