<svg width="100" height="125" viewBox="0 0 100 125" fill="none" xmlns="http://www.w3.org/2000/svg">
<rect x="5.5" y="5.5" width="89" height="114" rx="2.5" stroke="#333333"/>
<rect x="8" y="33" width="84" height="84" rx="2" fill="#CCCCCC"/>
<path fill-rule="evenodd" clip-rule="evenodd" d="M48.253 73.7647L19.428 102.59L20.1351 103.297L48.9601 74.4718L78.825 104.337L79.5321 103.63L49.6672 73.7647L79.5321 43.8999L78.825 43.1927L48.9601 73.0576L20.1351 44.2327L19.428 44.9398L48.253 73.7647Z" fill="#DDDDDD"/>
<path d="M38.1787 78H36.6406V71.6016H38.1787V78ZM41.2769 71.6016L42.7051 76.0532L44.1289 71.6016H46.1592V78H44.6123V76.5059L44.7617 73.4473L43.2148 78H42.1953L40.644 73.4429L40.7935 76.5059V78H39.251V71.6016H41.2769ZM50.8569 76.8047H48.7432L48.374 78H46.7261L49.0728 71.6016H50.5229L52.8872 78H51.2305L50.8569 76.8047ZM49.1123 75.6138H50.4878L49.7979 73.3945L49.1123 75.6138ZM58.499 77.209C58.2617 77.4727 57.9146 77.6851 57.4575 77.8462C57.0005 78.0073 56.4995 78.0879 55.9546 78.0879C55.1167 78.0879 54.4473 77.8315 53.9463 77.3188C53.4453 76.8062 53.1772 76.0928 53.1421 75.1787L53.1377 74.625C53.1377 73.9951 53.249 73.4458 53.4717 72.9771C53.6943 72.5054 54.0122 72.1436 54.4253 71.8916C54.8413 71.6367 55.3218 71.5093 55.8667 71.5093C56.6636 71.5093 57.2817 71.6924 57.7212 72.0586C58.1636 72.4219 58.4214 72.9653 58.4946 73.689H57.0093C56.9565 73.3315 56.8423 73.0767 56.6665 72.9243C56.4907 72.772 56.2417 72.6958 55.9194 72.6958C55.5327 72.6958 55.2339 72.8599 55.0229 73.188C54.812 73.5161 54.7051 73.9849 54.7021 74.5942V74.981C54.7021 75.6196 54.8105 76.1001 55.0273 76.4224C55.2471 76.7417 55.5913 76.9014 56.0601 76.9014C56.4614 76.9014 56.7603 76.812 56.9565 76.6333V75.6401H55.8843V74.5811H58.499V77.209ZM63.3638 75.2886H60.938V76.8135H63.8032V78H59.3955V71.6016H63.812V72.7925H60.938V74.1416H63.3638V75.2886Z" fill="white"/>
<path d="M20.6094 22V15.6016H22.9077C23.731 15.6016 24.3564 15.7524 24.7842 16.0542C25.2148 16.356 25.4302 16.7939 25.4302 17.3682C25.4302 17.6992 25.354 17.9819 25.2017 18.2163C25.0493 18.4507 24.8252 18.6235 24.5293 18.7349C24.8633 18.8228 25.1196 18.9868 25.2983 19.2271C25.4771 19.4673 25.5664 19.7603 25.5664 20.106C25.5664 20.7329 25.3672 21.2046 24.9688 21.521C24.5732 21.8345 23.9858 21.9941 23.2065 22H20.6094ZM22.1519 19.2798V20.8135H23.1626C23.4409 20.8135 23.6548 20.7505 23.8042 20.6245C23.9536 20.4956 24.0283 20.3154 24.0283 20.084C24.0283 19.5508 23.7632 19.2827 23.2329 19.2798H22.1519ZM22.1519 18.269H22.9561C23.293 18.2661 23.5332 18.2046 23.6768 18.0845C23.8203 17.9644 23.8921 17.7871 23.8921 17.5527C23.8921 17.2832 23.8145 17.0898 23.6592 16.9727C23.5039 16.8525 23.2534 16.7925 22.9077 16.7925H22.1519V18.269ZM31.4375 15.6016V19.7896C31.4375 20.2642 31.3364 20.6758 31.1343 21.0244C30.9321 21.3701 30.6421 21.6338 30.2642 21.8154C29.8862 21.9971 29.4395 22.0879 28.9238 22.0879C28.1445 22.0879 27.5308 21.8857 27.0825 21.4814C26.6343 21.0771 26.4058 20.5234 26.397 19.8203V15.6016H27.9482V19.8511C27.9658 20.5513 28.291 20.9014 28.9238 20.9014C29.2432 20.9014 29.4849 20.8135 29.6489 20.6377C29.813 20.4619 29.895 20.1763 29.895 19.7808V15.6016H31.4375ZM37.4272 16.7925H35.5068V22H33.9644V16.7925H32.0791V15.6016H37.4272V16.7925ZM43.1753 16.7925H41.2549V22H39.7124V16.7925H37.8271V15.6016H43.1753V16.7925ZM49.1255 18.9326C49.1255 19.5566 49.0098 20.1089 48.7783 20.5894C48.5469 21.0698 48.2173 21.4404 47.7896 21.7012C47.3647 21.959 46.8799 22.0879 46.335 22.0879C45.79 22.0879 45.3066 21.9634 44.8848 21.7144C44.4629 21.4624 44.1333 21.1035 43.896 20.6377C43.6616 20.1719 43.5386 19.6372 43.5269 19.0337V18.6733C43.5269 18.0464 43.6411 17.4941 43.8696 17.0166C44.1011 16.5361 44.4307 16.1655 44.8584 15.9048C45.2891 15.644 45.7783 15.5137 46.3262 15.5137C46.8682 15.5137 47.3516 15.6426 47.7764 15.9004C48.2012 16.1582 48.5308 16.5259 48.7651 17.0034C49.0024 17.478 49.1226 18.0229 49.1255 18.6382V18.9326ZM47.5566 18.6646C47.5566 18.0288 47.4497 17.5469 47.2358 17.2188C47.0249 16.8877 46.7217 16.7222 46.3262 16.7222C45.5527 16.7222 45.144 17.3022 45.1001 18.4624L45.0957 18.9326C45.0957 19.5596 45.1997 20.0415 45.4077 20.3784C45.6157 20.7153 45.9248 20.8838 46.335 20.8838C46.7246 20.8838 47.0249 20.7183 47.2358 20.3872C47.4468 20.0562 47.5537 19.5801 47.5566 18.959V18.6646ZM55.2646 22H53.731L51.4634 18.0186V22H49.9209V15.6016H51.4634L53.7266 19.583V15.6016H55.2646V22ZM63.2407 16.7925H61.3203V22H59.7778V16.7925H57.8926V15.6016H63.2407V16.7925ZM67.8638 19.2886H65.438V20.8135H68.3032V22H63.8955V15.6016H68.312V16.7925H65.438V18.1416H67.8638V19.2886ZM71.3179 17.7285L72.3638 15.6016H74.126L72.3374 18.7744L74.1743 22H72.3945L71.3179 19.8335L70.2412 22H68.4658L70.2983 18.7744L68.5142 15.6016H70.272L71.3179 17.7285ZM79.7026 16.7925H77.7822V22H76.2397V16.7925H74.3545V15.6016H79.7026V16.7925Z" fill="#333333"/>
</svg>
