<?xml version="1.0" standalone="no"?>
<!DOCTYPE svg PUBLIC "-//W3C//DTD SVG 20010904//EN"
 "http://www.w3.org/TR/2001/REC-SVG-20010904/DTD/svg10.dtd">
<svg version="1.0" xmlns="http://www.w3.org/2000/svg"
 width="400.000000pt" height="400.000000pt" viewBox="0 0 400.000000 400.000000"
 preserveAspectRatio="xMidYMid meet">
<metadata>
Created by potrace 1.11, written by Peter Selinger 2001-2013
</metadata>
<g transform="translate(0.000000,400.000000) scale(0.100000,-0.100000)"
fill="#000000" stroke="none">
<path d="M1838 3744 c-2 -1 -28 -6 -58 -9 -55 -6 -88 -11 -125 -19 -355 -77
-639 -230 -885 -475 -335 -333 -514 -757 -518 -1228 -4 -668 361 -1268 958
-1574 47 -24 87 -44 90 -45 3 0 14 -4 25 -9 238 -98 449 -136 715 -130 353 7
637 96 930 290 117 78 151 106 265 220 183 182 321 394 408 630 115 311 137
687 57 1021 -37 157 -128 373 -216 512 -98 156 -270 348 -389 437 -22 16 -42
33 -45 36 -13 17 -185 122 -256 157 -203 101 -332 141 -563 176 -73 11 -384
19 -393 10z m367 -459 c16 -3 61 -13 99 -21 148 -31 336 -121 481 -230 486
-365 651 -1038 389 -1590 -32 -68 -91 -171 -104 -184 -3 -3 -20 -25 -38 -50
-76 -105 -228 -242 -354 -318 -153 -94 -295 -145 -493 -180 -53 -9 -307 -9
-370 0 -428 64 -802 339 -987 728 -51 107 -74 177 -103 315 -20 94 -23 132
-20 265 4 166 6 182 37 305 33 130 77 233 159 370 26 44 25 43 101 135 187
228 482 403 753 446 22 3 58 10 80 14 45 9 324 6 370 -5z"/>
<path d="M2155 2843 c-16 -14 -48 -42 -71 -62 -23 -20 -61 -52 -85 -72 -24
-21 -56 -48 -70 -60 -14 -13 -39 -35 -55 -49 -306 -262 -453 -388 -469 -403
-11 -10 -58 -51 -105 -90 -46 -40 -104 -90 -128 -112 l-43 -40 406 0 c223 0
405 -2 405 -5 0 -3 -7 -44 -15 -92 -8 -48 -17 -105 -20 -126 -3 -21 -7 -47 -9
-59 -3 -11 -12 -70 -21 -129 -9 -60 -20 -129 -25 -154 -5 -25 -12 -67 -15 -94
-3 -27 -8 -52 -10 -55 -1 -3 -6 -31 -10 -61 l-7 -55 24 20 c12 11 25 22 28 25
3 3 70 62 150 130 80 68 156 134 170 146 64 55 188 161 210 180 29 25 122 105
165 143 17 14 92 79 168 144 75 65 137 121 137 125 0 4 -176 7 -391 7 -215 0
-395 2 -400 6 -5 3 -3 39 5 90 8 46 17 102 21 124 3 22 8 51 10 65 7 39 34
211 40 255 4 22 8 47 10 55 3 8 7 35 10 60 3 25 10 71 17 103 6 32 9 59 7 61
-2 3 -17 -7 -34 -21z"/>
</g>
</svg>
