<svg width="100" height="132" viewBox="0 0 100 132" fill="none" xmlns="http://www.w3.org/2000/svg">
<path d="M7.08489 113.913C3.99089 113.913 1.98489 115.409 1.98489 117.789C1.98489 121.971 8.15589 120.951 8.15589 122.498C8.15589 122.923 7.78189 123.11 7.2039 123.11C5.99689 123.11 3.88889 122.277 2.66489 121.257L1.20289 124.215C2.78389 125.422 5.09589 126.119 7.16989 126.119C9.85589 126.119 12.1849 124.946 12.1849 122.294C12.1849 117.976 6.01389 118.911 6.01389 117.415C6.01389 117.058 6.3029 116.922 6.74489 116.922C7.78189 116.922 9.63489 117.653 10.8419 118.316L12.2699 115.324C10.9269 114.474 8.9719 113.913 7.08489 113.913ZM19.275 122.974C18.918 123.11 18.544 123.212 18.323 123.212C17.864 123.229 17.575 122.923 17.575 122.43V119.625H19.751V117.211H17.575V114.61H13.767V117.211H12.492V119.625H13.767V123.008C13.767 124.946 15.144 126.187 17.269 126.17C18.255 126.17 19.309 125.949 19.921 125.592L19.275 122.974ZM25.6833 116.565C22.4873 116.565 20.4303 118.435 20.4303 121.342C20.4303 124.249 22.4873 126.136 25.6833 126.136C28.8793 126.136 30.9363 124.249 30.9363 121.342C30.9363 118.435 28.8793 116.565 25.6833 116.565ZM25.6833 119.591C26.5333 119.591 27.0773 120.305 27.0773 121.393C27.0773 122.481 26.5333 123.195 25.6833 123.195C24.8333 123.195 24.2893 122.481 24.2893 121.393C24.2893 120.305 24.8333 119.591 25.6833 119.591ZM35.9587 116.701H32.1337V126H35.9587V121.563C35.9587 120.339 37.0807 119.727 38.7977 119.982V116.531C37.5907 116.531 36.6047 117.092 35.9587 118.061V116.701ZM50.0783 116.701H46.2703L44.7573 122.005L42.9213 116.701H38.9943L42.8533 125.711L42.7173 125.932C42.5303 126.255 42.2413 126.408 41.7993 126.408C41.3403 126.408 40.9663 126.238 40.5583 125.864L38.9603 128.38C39.9633 129.128 40.9493 129.468 42.1733 129.468C44.1623 129.468 45.4713 128.584 46.2533 126.646L50.0783 116.701ZM61.9784 126L66.5344 114.083H62.5054L60.0574 121.903L57.5924 114.083H53.3764L57.8984 126H61.9784ZM69.2998 112.111C68.1608 112.111 67.3618 112.91 67.3618 114.049C67.3618 115.188 68.1608 115.987 69.2998 115.987C70.4388 115.987 71.2378 115.188 71.2378 114.049C71.2378 112.91 70.4388 112.111 69.2998 112.111ZM71.2038 126V116.701H67.3788V126H71.2038ZM77.3572 116.565C74.3652 116.565 72.3932 118.452 72.3932 121.393C72.3932 124.266 74.2802 126.136 77.4592 126.136C79.2612 126.136 80.6892 125.524 81.6752 124.436L79.6862 122.481C79.1082 123.025 78.4452 123.314 77.7992 123.314C77.0512 123.314 76.5072 122.94 76.2522 122.209H82.3042C82.5082 118.775 80.6042 116.565 77.3572 116.565ZM76.1672 120.441C76.3202 119.659 76.7282 119.115 77.3912 119.115C78.0542 119.115 78.5302 119.676 78.4792 120.441H76.1672ZM95.7105 126L99.1105 116.701H95.4215L93.9595 122.243L92.4805 116.701H88.9445L87.5165 122.243L86.0375 116.701H82.1615L85.5275 126H89.2675L90.6445 121.104L91.9705 126H95.7105Z" fill="black"/>
<circle cx="50" cy="50" r="42.5" fill="white" stroke="url(#paint0_linear)" stroke-width="15"/>
<path fill-rule="evenodd" clip-rule="evenodd" d="M48.3188 51.2712L25 51.2712L40.2542 38.1356L55.5085 25L51.6812 48.7288H75L59.7458 61.8644L44.4915 75L48.3188 51.2712Z" fill="url(#paint1_linear)"/>
<defs>
<linearGradient id="paint0_linear" x1="10.5" y1="21.5" x2="87" y2="79" gradientUnits="userSpaceOnUse">
<stop stop-color="#FFF000"/>
<stop offset="1" stop-color="#FF6B00"/>
</linearGradient>
<linearGradient id="paint1_linear" x1="75" y1="50" x2="25" y2="50" gradientUnits="userSpaceOnUse">
<stop stop-color="#8000FF"/>
<stop offset="1" stop-color="#FF7A00"/>
</linearGradient>
</defs>
</svg>
