<svg width="100" height="125" viewBox="0 0 100 125" fill="none" xmlns="http://www.w3.org/2000/svg">
<rect x="5.5" y="5.5" width="89" height="114" rx="2.5" stroke="#333333"/>
<rect x="8" y="8" width="84" height="84" rx="42" fill="#CCCCCC"/>
<path fill-rule="evenodd" clip-rule="evenodd" d="M48.7873 50.1684L26 72.9556L26.559 73.5146L49.3463 50.7274L72.9557 74.3367L73.5146 73.7777L49.9053 50.1684L73.5146 26.559L72.9556 26L49.3463 49.6094L26.559 26.8221L26 27.3811L48.7873 50.1684Z" fill="#DDDDDD"/>
<path d="M38.1787 53H36.6406V46.6016H38.1787V53ZM41.2769 46.6016L42.7051 51.0532L44.1289 46.6016H46.1592V53H44.6123V51.5059L44.7617 48.4473L43.2148 53H42.1953L40.644 48.4429L40.7935 51.5059V53H39.251V46.6016H41.2769ZM50.8569 51.8047H48.7432L48.374 53H46.7261L49.0728 46.6016H50.5229L52.8872 53H51.2305L50.8569 51.8047ZM49.1123 50.6138H50.4878L49.7979 48.3945L49.1123 50.6138ZM58.499 52.209C58.2617 52.4727 57.9146 52.6851 57.4575 52.8462C57.0005 53.0073 56.4995 53.0879 55.9546 53.0879C55.1167 53.0879 54.4473 52.8315 53.9463 52.3188C53.4453 51.8062 53.1772 51.0928 53.1421 50.1787L53.1377 49.625C53.1377 48.9951 53.249 48.4458 53.4717 47.9771C53.6943 47.5054 54.0122 47.1436 54.4253 46.8916C54.8413 46.6367 55.3218 46.5093 55.8667 46.5093C56.6636 46.5093 57.2817 46.6924 57.7212 47.0586C58.1636 47.4219 58.4214 47.9653 58.4946 48.689H57.0093C56.9565 48.3315 56.8423 48.0767 56.6665 47.9243C56.4907 47.772 56.2417 47.6958 55.9194 47.6958C55.5327 47.6958 55.2339 47.8599 55.0229 48.188C54.812 48.5161 54.7051 48.9849 54.7021 49.5942V49.981C54.7021 50.6196 54.8105 51.1001 55.0273 51.4224C55.2471 51.7417 55.5913 51.9014 56.0601 51.9014C56.4614 51.9014 56.7603 51.812 56.9565 51.6333V50.6401H55.8843V49.5811H58.499V52.209ZM63.3638 50.2886H60.938V51.8135H63.8032V53H59.3955V46.6016H63.812V47.7925H60.938V49.1416H63.3638V50.2886Z" fill="white"/>
<path d="M20.6094 109V102.602H22.9077C23.731 102.602 24.3564 102.752 24.7842 103.054C25.2148 103.356 25.4302 103.794 25.4302 104.368C25.4302 104.699 25.354 104.982 25.2017 105.216C25.0493 105.451 24.8252 105.624 24.5293 105.735C24.8633 105.823 25.1196 105.987 25.2983 106.227C25.4771 106.467 25.5664 106.76 25.5664 107.106C25.5664 107.733 25.3672 108.205 24.9688 108.521C24.5732 108.834 23.9858 108.994 23.2065 109H20.6094ZM22.1519 106.28V107.813H23.1626C23.4409 107.813 23.6548 107.75 23.8042 107.625C23.9536 107.496 24.0283 107.315 24.0283 107.084C24.0283 106.551 23.7632 106.283 23.2329 106.28H22.1519ZM22.1519 105.269H22.9561C23.293 105.266 23.5332 105.205 23.6768 105.084C23.8203 104.964 23.8921 104.787 23.8921 104.553C23.8921 104.283 23.8145 104.09 23.6592 103.973C23.5039 103.853 23.2534 103.792 22.9077 103.792H22.1519V105.269ZM31.4375 102.602V106.79C31.4375 107.264 31.3364 107.676 31.1343 108.024C30.9321 108.37 30.6421 108.634 30.2642 108.815C29.8862 108.997 29.4395 109.088 28.9238 109.088C28.1445 109.088 27.5308 108.886 27.0825 108.481C26.6343 108.077 26.4058 107.523 26.397 106.82V102.602H27.9482V106.851C27.9658 107.551 28.291 107.901 28.9238 107.901C29.2432 107.901 29.4849 107.813 29.6489 107.638C29.813 107.462 29.895 107.176 29.895 106.781V102.602H31.4375ZM37.4272 103.792H35.5068V109H33.9644V103.792H32.0791V102.602H37.4272V103.792ZM43.1753 103.792H41.2549V109H39.7124V103.792H37.8271V102.602H43.1753V103.792ZM49.1255 105.933C49.1255 106.557 49.0098 107.109 48.7783 107.589C48.5469 108.07 48.2173 108.44 47.7896 108.701C47.3647 108.959 46.8799 109.088 46.335 109.088C45.79 109.088 45.3066 108.963 44.8848 108.714C44.4629 108.462 44.1333 108.104 43.896 107.638C43.6616 107.172 43.5386 106.637 43.5269 106.034V105.673C43.5269 105.046 43.6411 104.494 43.8696 104.017C44.1011 103.536 44.4307 103.166 44.8584 102.905C45.2891 102.644 45.7783 102.514 46.3262 102.514C46.8682 102.514 47.3516 102.643 47.7764 102.9C48.2012 103.158 48.5308 103.526 48.7651 104.003C49.0024 104.478 49.1226 105.023 49.1255 105.638V105.933ZM47.5566 105.665C47.5566 105.029 47.4497 104.547 47.2358 104.219C47.0249 103.888 46.7217 103.722 46.3262 103.722C45.5527 103.722 45.144 104.302 45.1001 105.462L45.0957 105.933C45.0957 106.56 45.1997 107.042 45.4077 107.378C45.6157 107.715 45.9248 107.884 46.335 107.884C46.7246 107.884 47.0249 107.718 47.2358 107.387C47.4468 107.056 47.5537 106.58 47.5566 105.959V105.665ZM55.2646 109H53.731L51.4634 105.019V109H49.9209V102.602H51.4634L53.7266 106.583V102.602H55.2646V109ZM63.2407 103.792H61.3203V109H59.7778V103.792H57.8926V102.602H63.2407V103.792ZM67.8638 106.289H65.438V107.813H68.3032V109H63.8955V102.602H68.312V103.792H65.438V105.142H67.8638V106.289ZM71.3179 104.729L72.3638 102.602H74.126L72.3374 105.774L74.1743 109H72.3945L71.3179 106.833L70.2412 109H68.4658L70.2983 105.774L68.5142 102.602H70.272L71.3179 104.729ZM79.7026 103.792H77.7822V109H76.2397V103.792H74.3545V102.602H79.7026V103.792Z" fill="#333333"/>
</svg>
