<svg width="125" height="50" viewBox="0 0 125 50" fill="none" xmlns="http://www.w3.org/2000/svg">
<rect x="5.5" y="5.5" width="114" height="39" rx="19.5" stroke="#333333"/>
<rect x="8" y="8" width="34" height="34" rx="17" fill="#CCCCCC"/>
<path fill-rule="evenodd" clip-rule="evenodd" d="M23.6051 25.1872L14 34.7922L14.5821 35.3744L24.1872 25.7693L33.7922 35.3744L34.3744 34.7922L24.7693 25.1872L34.3744 15.5821L33.7922 15L24.1872 24.6051L14.5821 15L14 15.5821L23.6051 25.1872Z" fill="#DDDDDD"/>
<path d="M13.1787 28H11.6406V21.6016H13.1787V28ZM16.2769 21.6016L17.7051 26.0532L19.1289 21.6016H21.1592V28H19.6123V26.5059L19.7617 23.4473L18.2148 28H17.1953L15.644 23.4429L15.7935 26.5059V28H14.251V21.6016H16.2769ZM25.8569 26.8047H23.7432L23.374 28H21.7261L24.0728 21.6016H25.5229L27.8872 28H26.2305L25.8569 26.8047ZM24.1123 25.6138H25.4878L24.7979 23.3945L24.1123 25.6138ZM33.499 27.209C33.2617 27.4727 32.9146 27.6851 32.4575 27.8462C32.0005 28.0073 31.4995 28.0879 30.9546 28.0879C30.1167 28.0879 29.4473 27.8315 28.9463 27.3188C28.4453 26.8062 28.1772 26.0928 28.1421 25.1787L28.1377 24.625C28.1377 23.9951 28.249 23.4458 28.4717 22.9771C28.6943 22.5054 29.0122 22.1436 29.4253 21.8916C29.8413 21.6367 30.3218 21.5093 30.8667 21.5093C31.6636 21.5093 32.2817 21.6924 32.7212 22.0586C33.1636 22.4219 33.4214 22.9653 33.4946 23.689H32.0093C31.9565 23.3315 31.8423 23.0767 31.6665 22.9243C31.4907 22.772 31.2417 22.6958 30.9194 22.6958C30.5327 22.6958 30.2339 22.8599 30.0229 23.188C29.812 23.5161 29.7051 23.9849 29.7021 24.5942V24.981C29.7021 25.6196 29.8105 26.1001 30.0273 26.4224C30.2471 26.7417 30.5913 26.9014 31.0601 26.9014C31.4614 26.9014 31.7603 26.812 31.9565 26.6333V25.6401H30.8843V24.5811H33.499V27.209ZM38.3638 25.2886H35.938V26.8135H38.8032V28H34.3955V21.6016H38.812V22.7925H35.938V24.1416H38.3638V25.2886Z" fill="white"/>
<path d="M47.4834 28V21.6016H49.7817C50.605 21.6016 51.2305 21.7524 51.6582 22.0542C52.0889 22.356 52.3042 22.7939 52.3042 23.3682C52.3042 23.6992 52.228 23.9819 52.0757 24.2163C51.9233 24.4507 51.6992 24.6235 51.4033 24.7349C51.7373 24.8228 51.9937 24.9868 52.1724 25.2271C52.3511 25.4673 52.4404 25.7603 52.4404 26.106C52.4404 26.7329 52.2412 27.2046 51.8428 27.521C51.4473 27.8345 50.8599 27.9941 50.0806 28H47.4834ZM49.0259 25.2798V26.8135H50.0366C50.3149 26.8135 50.5288 26.7505 50.6782 26.6245C50.8276 26.4956 50.9023 26.3154 50.9023 26.084C50.9023 25.5508 50.6372 25.2827 50.1069 25.2798H49.0259ZM49.0259 24.269H49.8301C50.167 24.2661 50.4072 24.2046 50.5508 24.0845C50.6943 23.9644 50.7661 23.7871 50.7661 23.5527C50.7661 23.2832 50.6885 23.0898 50.5332 22.9727C50.3779 22.8525 50.1274 22.7925 49.7817 22.7925H49.0259V24.269ZM58.3115 21.6016V25.7896C58.3115 26.2642 58.2104 26.6758 58.0083 27.0244C57.8062 27.3701 57.5161 27.6338 57.1382 27.8154C56.7603 27.9971 56.3135 28.0879 55.7979 28.0879C55.0186 28.0879 54.4048 27.8857 53.9565 27.4814C53.5083 27.0771 53.2798 26.5234 53.271 25.8203V21.6016H54.8223V25.8511C54.8398 26.5513 55.165 26.9014 55.7979 26.9014C56.1172 26.9014 56.3589 26.8135 56.5229 26.6377C56.687 26.4619 56.769 26.1763 56.769 25.7808V21.6016H58.3115ZM64.3013 22.7925H62.3809V28H60.8384V22.7925H58.9531V21.6016H64.3013V22.7925ZM70.0493 22.7925H68.1289V28H66.5864V22.7925H64.7012V21.6016H70.0493V22.7925ZM75.9995 24.9326C75.9995 25.5566 75.8838 26.1089 75.6523 26.5894C75.4209 27.0698 75.0913 27.4404 74.6636 27.7012C74.2388 27.959 73.7539 28.0879 73.209 28.0879C72.6641 28.0879 72.1807 27.9634 71.7588 27.7144C71.3369 27.4624 71.0073 27.1035 70.77 26.6377C70.5356 26.1719 70.4126 25.6372 70.4009 25.0337V24.6733C70.4009 24.0464 70.5151 23.4941 70.7437 23.0166C70.9751 22.5361 71.3047 22.1655 71.7324 21.9048C72.1631 21.644 72.6523 21.5137 73.2002 21.5137C73.7422 21.5137 74.2256 21.6426 74.6504 21.9004C75.0752 22.1582 75.4048 22.5259 75.6392 23.0034C75.8765 23.478 75.9966 24.0229 75.9995 24.6382V24.9326ZM74.4307 24.6646C74.4307 24.0288 74.3237 23.5469 74.1099 23.2188C73.8989 22.8877 73.5957 22.7222 73.2002 22.7222C72.4268 22.7222 72.0181 23.3022 71.9741 24.4624L71.9697 24.9326C71.9697 25.5596 72.0737 26.0415 72.2817 26.3784C72.4897 26.7153 72.7988 26.8838 73.209 26.8838C73.5986 26.8838 73.8989 26.7183 74.1099 26.3872C74.3208 26.0562 74.4277 25.5801 74.4307 24.959V24.6646ZM82.1387 28H80.605L78.3374 24.0186V28H76.7949V21.6016H78.3374L80.6006 25.583V21.6016H82.1387V28ZM90.1147 22.7925H88.1943V28H86.6519V22.7925H84.7666V21.6016H90.1147V22.7925ZM94.7378 25.2886H92.312V26.8135H95.1772V28H90.7695V21.6016H95.186V22.7925H92.312V24.1416H94.7378V25.2886ZM98.1919 23.7285L99.2378 21.6016H101L99.2114 24.7744L101.048 28H99.2686L98.1919 25.8335L97.1152 28H95.3398L97.1724 24.7744L95.3882 21.6016H97.146L98.1919 23.7285ZM106.577 22.7925H104.656V28H103.114V22.7925H101.229V21.6016H106.577V22.7925Z" fill="#333333"/>
</svg>
